<?xml version="1.0" encoding="UTF-8" standalone="no"?>
<svg
   xmlns:dc="http://purl.org/dc/elements/1.1/"
   xmlns:cc="http://creativecommons.org/ns#"
   xmlns:rdf="http://www.w3.org/1999/02/22-rdf-syntax-ns#"
   xmlns:svg="http://www.w3.org/2000/svg"
   xmlns="http://www.w3.org/2000/svg"
   id="svg8"
   version="1.1"
   viewBox="0 0 133.56815 75.385292"
   height="75.385292mm"
   width="133.56815mm">
  <defs
     id="defs2">
    <clipPath
       id="clipPath3909"
       clipPathUnits="userSpaceOnUse">
      <circle
         r="18.819506"
         cy="43.289043"
         cx="45.502636"
         id="circle3911"
         style="fill:#ffcc00;stroke-width:0.26458332" />
    </clipPath>
  </defs>
  <metadata
     id="metadata5">
    <rdf:RDF>
      <cc:Work
         rdf:about="">
        <dc:format>image/svg+xml</dc:format>
        <dc:type
           rdf:resource="http://purl.org/dc/dcmitype/StillImage" />
        <dc:title></dc:title>
      </cc:Work>
    </rdf:RDF>
  </metadata>
  <g
     transform="translate(-7.6025698,-6.7181617)"
     id="layer1">
    <path
       transform="scale(1,-1)"
       style="fill:#ffeeaa;stroke-width:0.26458332"
       d="m 45.737751,-44.96484 c 0,10.488762 -22.238997,23.328452 -31.322531,18.084072 -9.0835337,-5.244381 -9.0835337,-30.923763 0,-36.168143 9.083534,-5.244381 31.322531,7.59531 31.322531,18.084071 z"
       id="path3717" />
    <path
       transform="matrix(0.30901699,-0.95105652,-0.95105652,-0.30901699,0.77827676,87.355753)"
       style="fill:#ffeeaa;stroke-width:0.26458332"
       d="m 55.225819,-29.864117 c 0,10.488762 -22.238997,23.3284526 -31.322531,18.084072 -9.083534,-5.244381 -9.083534,-30.923762 0,-36.168143 9.083534,-5.244381 31.322531,7.59531 31.322531,18.084071 z"
       id="path3717-3" />
    <path
       transform="matrix(-0.80901699,-0.58778525,-0.58778525,0.80901699,72.669367,99.919915)"
       style="fill:#ffeeaa;stroke-width:0.26458332"
       d="m 55.225819,-29.864117 c 0,10.488762 -22.238997,23.3284526 -31.322531,18.084072 -9.083534,-5.244381 -9.083534,-30.923762 0,-36.168143 9.083534,-5.244381 31.322531,7.59531 31.322531,18.084071 z"
       id="path3717-3-6" />
    <path
       transform="matrix(-0.80901699,0.58778525,0.58778525,0.80901699,106.83416,35.429957)"
       style="fill:#ffeeaa;stroke-width:0.26458332"
       d="m 55.225819,-29.864117 c 0,10.488762 -22.238997,23.3284526 -31.322531,18.084072 -9.083534,-5.244381 -9.083534,-30.923762 0,-36.168143 9.083534,-5.244381 31.322531,7.59531 31.322531,18.084071 z"
       id="path3717-3-6-7" />
    <path
       transform="matrix(0.30901699,0.95105652,0.95105652,-0.30901699,56.058071,-16.991178)"
       style="fill:#ffeeaa;stroke-width:0.26458332"
       d="m 55.225819,-29.864117 c 0,10.488762 -22.238997,23.3284526 -31.322531,18.084072 -9.083534,-5.244381 -9.083534,-30.923762 0,-36.168143 9.083534,-5.244381 31.322531,7.59531 31.322531,18.084071 z"
       id="path3717-3-6-7-5" />
    <circle
       r="18.819504"
       cy="43.289028"
       cx="45.502636"
       id="path3788"
       style="fill:#ffcc00;stroke-width:0.26458332" />
    <g
       transform="translate(-0.52916663)"
       clip-path="url(#clipPath3909)"
       id="g3886">
      <rect
         style="fill:#ffffff;stroke-width:0.44721499"
         id="rect3798-3"
         width="15.501633"
         height="3.5842395"
         x="-62.452427"
         y="33.6478"
         transform="rotate(-90)" />
      <rect
         style="fill:#ffffff;stroke-width:0.533032"
         id="rect3798-3-6"
         width="22.021723"
         height="3.5842395"
         x="-62.452427"
         y="39.238934"
         transform="rotate(-90)" />
      <rect
         style="fill:#ffffff;stroke-width:0.49754235"
         id="rect3798-3-6-9"
         width="19.186901"
         height="3.5842395"
         x="-62.452427"
         y="44.83007"
         transform="rotate(-90)" />
      <rect
         style="fill:#ffffff;stroke-width:0.44721499"
         id="rect3798-3-1"
         width="15.501633"
         height="3.5842395"
         x="-62.452427"
         y="50.051983"
         transform="rotate(-90)" />
      <rect
         style="fill:#ffffff;stroke-width:0.39971122"
         id="rect3798-3-1-2"
         width="12.383329"
         height="3.5842395"
         x="-62.452427"
         y="55.343655"
         transform="rotate(-90)" />
    </g>
    <g
       id="flowRoot3913"
       style="font-style:normal;font-weight:normal;font-size:40px;line-height:1.25;font-family:sans-serif;letter-spacing:0px;word-spacing:0px;fill:#483737;fill-opacity:1;stroke:none"
       transform="matrix(0.26458333,0,0,0.26458333,0,12.813393)"
       aria-label="Polly">
      <path
         id="path4001"
         style="font-style:normal;font-variant:normal;font-weight:normal;font-stretch:normal;font-size:96px;font-family:Impact;-inkscape-font-specification:Impact;fill:#483737"
         d="m 344.65234,84.16249 h 19.875 q 8.0625,0 12.375,1.265625 4.35938,1.265625 6.51563,3.65625 2.20312,2.390625 2.95312,5.8125 0.79688,3.375 0.79688,10.499995 v 6.60938 q 0,7.26562 -1.5,10.59375 -1.5,3.32812 -5.53125,5.10937 -3.98438,1.78125 -10.45313,1.78125 h -5.29687 v 30.5625 h -19.73438 z m 19.73438,12.984375 v 19.312495 q 0.84375,0.0469 1.45312,0.0469 2.71875,0 3.75,-1.3125 1.07813,-1.35938 1.07813,-5.57813 v -6.23437 q 0,-3.890625 -1.21875,-5.0625 -1.21875,-1.171875 -5.0625,-1.171875 z" />
      <path
         id="path4003"
         style="font-style:normal;font-variant:normal;font-weight:normal;font-stretch:normal;font-size:96px;font-family:Impact;-inkscape-font-specification:Impact;fill:#483737"
         d="m 435.12109,119.69374 v 15.23437 q 0,8.39063 -0.84375,12.32813 -0.84375,3.89062 -3.60937,7.3125 -2.76563,3.375 -7.125,5.01562 -4.3125,1.59375 -9.9375,1.59375 -6.28125,0 -10.64063,-1.35937 -4.35937,-1.40625 -6.79687,-4.17188 -2.39063,-2.8125 -3.42188,-6.75 -1.03125,-3.98437 -1.03125,-11.90625 v -15.9375 q 0,-8.67187 1.875,-13.54687 1.875,-4.875 6.75,-7.828125 4.875,-2.953125 12.46875,-2.953125 6.375,0 10.92188,1.921875 4.59375,1.874995 7.07812,4.921875 2.48438,3.04687 3.375,6.28125 0.9375,3.23437 0.9375,9.84375 z m -18.9375,-4.6875 q 0,-4.78125 -0.51562,-6 -0.51563,-1.26563 -2.20313,-1.26563 -1.6875,0 -2.25,1.26563 -0.5625,1.21875 -0.5625,6 v 28.07812 q 0,4.40625 0.5625,5.76563 0.5625,1.3125 2.20313,1.3125 1.6875,0 2.20312,-1.21875 0.5625,-1.21875 0.5625,-5.25 z" />
      <path
         id="path4005"
         style="font-style:normal;font-variant:normal;font-weight:normal;font-stretch:normal;font-size:96px;font-family:Impact;-inkscape-font-specification:Impact;fill:#483737"
         d="m 460.90234,84.16249 v 75.89062 h -19.5 V 84.16249 Z" />
      <path
         id="path4007"
         style="font-style:normal;font-variant:normal;font-weight:normal;font-stretch:normal;font-size:96px;font-family:Impact;-inkscape-font-specification:Impact;fill:#483737"
         d="m 487.15234,84.16249 v 75.89062 h -19.5 V 84.16249 Z" />
      <path
         id="path4009"
         style="font-style:normal;font-variant:normal;font-weight:normal;font-stretch:normal;font-size:96px;font-family:Impact;-inkscape-font-specification:Impact;fill:#483737"
         d="m 533.55859,97.84999 -5.4375,45 q -1.26562,10.6875 -2.15625,14.57812 -0.84375,3.89063 -2.85937,6.42188 -2.01563,2.53125 -5.625,3.70312 -3.5625,1.21875 -11.4375,1.21875 h -11.48438 v -9.9375 q 4.40625,0 5.67188,-0.42187 1.26562,-0.46875 1.26562,-2.01563 0,-0.75 -1.17187,-6.51562 L 489.96484,97.84999 h 17.20313 l 6.1875,41.95312 3,-41.95312 z" />
    </g>
  </g>
</svg>
